# xmcd
#
# Track frame offsets:
#	150
#	12150
#	28125
#	43650
#	57900
#	72825
#	85125
#	98475
#	114750
#	129000
#	138750
#	156150
#	168825
#	175725
#	178500
#
# Disc length: 2441 seconds
#
# Revision: 0
# Processed by: cddbd v1.5.2PL0 Copyright (c) Steve Scherf et al.
# Submitted via: dBpowerAMP V4.0
#
DISCID=ac09870f
DTITLE=Various Artist - CDX Christmas
DYEAR=1991
DGENRE=Country
TTITLE0=Garth Brooks - God Rest Ye Merry Gentlemen
TTITLE1=Elmo and Patsy - Grandma Got Run Over By a Reindeer
TTITLE2=Alan Jackson - I Only Want You For Christmas
TTITLE3=Ricky Van Shelton - I'll Be Home For Christmas
TTITLE4=Charlie Daniels - Little Folks
TTITLE5=George Strait - Merry Christmas Strait to You
TTITLE6=Alan Jackson - Merry Christmas To Me
TTITLE7=Ricky Skaggs with James Taylor - New Star Shining
TTITLE8=Mike Reid - O Come, O Come Emmanuel
TTITLE9=Brenda Lee - Rockin' Around The Christmas Tree
TTITLE10=Garth Brooks - Silent Night
TTITLE11=Dolly Parton - We Three Kings
TTITLE12=13 - Charlie Daniels - PSA
TTITLE13=14 - Charlie Daniels - PSA
TTITLE14=15 - Charlie Daniels - PSA
EXTD=Country Christmas
EXTT0=
EXTT1=
EXTT2=
EXTT3=
EXTT4=
EXTT5=
EXTT6=
EXTT7=
EXTT8=
EXTT9=
EXTT10=
EXTT11=
EXTT12=
EXTT13=
EXTT14=
PLAYORDER=
